<svg width="74" height="24" xmlns="http://www.w3.org/2000/svg"><path d="M73.788 6.763l.058.599c-1.055.12-2.168.598-2.696 1.616l-3.458 12.568c-.176.599.352.658.352.658.88-.12 2.344-1.077 2.344-1.077l.352.599s-2.813 1.855-3.517 2.094c-.937.18-1.465-.419-1.816-.957 0 0-2.52 1.616-3.751.718-.47-.3-.997-.898-1.29-1.317-.937.599-1.875 1.197-2.93 1.676-.703.12-1.758-1.017-1.641-2.035 0 0 2.93-12.21 3.81-13.705 1.172-1.257 2.93-1.437 4.512-1.377l.059.539c-1.055.12-2.169.598-2.696 1.616-1.348 4.13-2.227 8.379-3.4 12.568-.058.3.06.539.352.658.176 0 1.348-.478 1.817-.778 0 0 1.348-5.506 1.582-5.985 1.817-2.513 5.04-1.795 5.451-1.197 0 0 1.348-4.847 1.993-6.104 1.172-1.257 2.93-1.437 4.513-1.377zm-17.759 7.302c.82.898.293 2.932-.293 4.13-.996 1.316-4.337 1.137-4.337 1.137s-.469 1.795-.41 1.915c.176.419.82.838 1.29.898h.058c.82-.12 2.227-1.018 2.227-1.018l.352.659s-3.458 2.274-3.81 2.154c-1.172-.06-2.637-1.616-2.637-2.095.351-1.795 1.055-4.429 1.465-5.865.528-1.257 1.7-1.616 2.755-1.975 1.055-.24 2.637-.658 3.34.06zm-9.436-3.71l.059-.06c.234-.898.352-1.736-.293-1.856-.586-.06-1.407.479-1.641 1.137l-1.114 4.25H48s-1.348 5.625-1.934 7.84c0 .18.059.419.293.538H46.476c.293.06.703-.06 1.407-.538l.351.598L45.538 24c-.937-.06-1.7-1.137-1.758-1.496 0-.06 1.641-6.883 1.641-6.883.117-.539-.176-.658-.586-.718H43.37l-2.227 8.858h-2.227l2.051-8.5c.117-.418-.352-.358-.352-.358h-2.637s-1.055 4.488-1.641 6.703c0 .3.176 1.077 1.758 0l.352.598-2.696 1.736c-.938-.06-1.7-1.137-1.758-1.496l1.817-7.601h-1.173l.352-1.137h1.172s.41-1.317.586-1.975c.059-.42.176-.778-.058-1.317l1.64-.778c1.114 1.376.704 1.616.06 4.07h2.988l1.29-4.549c.762-.658 1.523-1.317 2.344-1.795.586-.36 1.172-.659 1.817-.778 1.758-.3 2.52 1.616 2.227 2.753 0 0-.176.718-.352 1.376-.176.599-.293 1.137-.293 1.137h-2.168s.117-.478.234-1.017c.059-.18.059-.3.117-.479zM34.52 15.8c-.058.06-1.582 1.018-1.64 1.078-.88-1.856-1.76-2.574-2.462-1.377-.235.479-.47 1.257-.41 1.676 0 .24.234.419.527.539.058 0 .117.06.176.06.703.239 1.465.419 1.934.778.176.12.351.299.41.478 0 .06.059.18.059.24.058.658-.293 1.855-.528 2.514-.469 1.316-2.403 2.154-3.692 2.154-.176 0-.352 0-.528-.06h-.117c-.703-.18-1.29-.658-1.817-1.735-.058-.06-.117-.18-.176-.3.059-.06 1.583-.957 1.641-1.017.88 1.855 1.759 2.574 2.462 1.376.293-.478.527-1.256.469-1.675-.059-.24-.235-.42-.528-.539-.058 0-.117-.06-.175-.06h-.06c-.702-.18-1.464-.359-1.933-.718-.176-.18-.352-.36-.41-.539-.059-.06-.059-.18-.059-.24-.117-.717.293-1.914.528-2.573.468-1.316 2.402-2.154 3.692-2.154.176 0 .351 0 .527.06h.117c.645.18 1.29.658 1.817 1.735.059.06.118.18.176.3zm-7.619-1.735c.82.898.352 2.932-.41 4.13-.997 1.316-4.337 1.137-4.337 1.137s-.469 1.795-.41 1.915c.175.419.82.838 1.289.898h.059c.879-.12 2.285-1.018 2.285-1.018l.352.659s-3.458 2.274-3.81 2.154c-1.113-.06-2.578-1.616-2.578-2.095.41-1.795 1.055-4.429 1.465-5.865.527-1.257 1.7-1.616 2.754-1.975.997-.24 2.638-.658 3.341.06zm-7.385 1.376c.587 4.37-5.509 8.38-5.45 8.44l-.586-.719c2.168-1.855 1.758-3.95 1.758-3.95-.527-3.412-.996-5.985-1.406-7.9l-3.869 3.95c0 .12.059.24.059.359.645 4.31-5.45 8.379-5.45 8.379l-.587-.718c2.169-1.856 1.759-3.95 1.759-3.95C3.224 4.01 2.989 4.19 2.696 3.83c-.645-.778-2.579 0-2.579 0L0 3.232 7.62.06S8.907 8.2 9.728 13.287l3.34-3.472s.41-.419.294-1.197c-.47-2.633-.762-3.83-.938-4.428-.117-.3-.234-.36-.293-.48-.645-.717-2.579.06-2.579.06l-.117-.598L17.055 0s1.348 8.2 2.168 13.227c-.117-.599-.117-.898 0 0l3.4-3.471.058-.06c.118-.18.352-.539.235-1.137-.47-2.634-.762-3.83-.938-4.43-.117-.358-.234-.418-.293-.478-.645-.778-2.579 0-2.579 0l-.176-.539h.059L26.549.06s.41 2.334.88 5.267c.058 1.616-1.055 2.813-1.055 2.813l-2.99 3.052-3.926 3.95c0 .12.058.18.058.3zm34.638 1.437s.644-1.676-.117-2.035c-.47-.12-1.641.479-1.934 1.436l-.41 1.676s-.06.12 0 .12c.234.06 1.992.24 2.46-1.197zm-29.07 0s.645-1.676-.117-2.035c-.527-.12-1.641.479-1.934 1.436l-.41 1.676s-.059.12 0 .12c.234.06 1.992.24 2.461-1.197zm41.788-.718c.117-1.796-1.934-1.616-2.872-.36-.176.3-1.23 4.49-1.23 4.49-.645 2.573 1.113 2.094 2.578.897.117-.12.234-.18.293-.479l1.23-4.548z" fill="#000" fill-rule="evenodd"/></svg>