<?xml version="1.0" encoding="UTF-8" standalone="no"?>
<!-- Created with Inkscape (http://www.inkscape.org/) -->
<svg
   xmlns:svg="http://www.w3.org/2000/svg"
   xmlns="http://www.w3.org/2000/svg"
   version="1.0"
   width="721.03003"
   height="256"
   id="svg12339"
   xml:space="preserve"><defs
     id="defs12342"><clipPath
       id="clipPath12354"><path
         d="M 0,841.98 L 595.02,841.98 L 595.02,0.14 L 0,0.14 L 0,841.98 z"
         id="path12356" /></clipPath><clipPath
       id="clipPath12368"><path
         d="M 450.78,749.36 L 489,749.36 L 489,782 L 450.78,782 L 450.78,749.36 z"
         id="path12370" /></clipPath><clipPath
       id="clipPath12386"><path
         d="M 527.88,749.36 L 553.14,749.36 L 553.14,772.88 L 527.88,772.88 L 527.88,749.36 z"
         id="path12388" /></clipPath><clipPath
       id="clipPath12396"><path
         d="M 517.98,749.36 L 529.68,749.36 L 529.68,763.88 L 517.98,763.88 L 517.98,749.36 z"
         id="path12398" /></clipPath><clipPath
       id="clipPath12406"><path
         d="M 477.6,749.36 L 489.3,749.36 L 489.3,763.88 L 477.6,763.88 L 477.6,749.36 z"
         id="path12408" /></clipPath></defs><g
     transform="matrix(1.25,0,0,-1.25,0,1052.5)"
     id="g12348"><g
       transform="matrix(1.2819381,7.5048405e-5,-7.6948199e-5,1.250288,-259.2097,-505.46319)"
       id="g12726"><path
         d="M -1485.7466,1169.8983 C -1504.6331,1169.8983 -1519.7921,1154.4908 -1519.7921,1135.6043 L -1519.7921,919.40326 C -1519.7921,900.76524 -1504.6331,885.35781 -1485.7466,885.35781 L 625.31978,885.35781 C 644.20631,885.35781 659.36523,900.76524 659.36523,919.40326 L 659.36523,1135.6043 C 659.36523,1154.4908 644.20631,1169.8983 625.31978,1169.8983"
         id="path12362"
         style="fill:#ff0000;fill-opacity:1;fill-rule:evenodd;stroke:none" /><g
         transform="matrix(4.1417822,0,0,4.1417822,-1655.1351,-2176.4857)"
         id="g12364"><g
           clip-path="url(#clipPath12368)"
           id="g12366"><path
             d="M 477.78,761 C 477.78,761.12 477.72,761.24 477.72,761.42 C 483.12,766.82 483.12,766.82 483.12,766.82 C 487.32,771.02 487.32,771.02 487.32,771.02 C 487.32,771.02 488.88,772.64 488.76,774.92 C 488.1,778.88 487.56,782.06 487.56,782.06 C 477.12,777.8 477.12,777.8 477.12,777.8 C 477.06,777.74 477.06,777.74 477.06,777.74 C 477.24,777.02 477.24,777.02 477.24,777.02 C 477.24,777.02 479.88,778.04 480.78,777.02 C 480.9,776.9 481.02,776.84 481.2,776.36 C 481.38,775.58 481.74,773.96 482.4,770.3 C 482.58,769.58 482.28,769.04 482.1,768.8 L 482.1,768.74 C 477.36,764 477.36,764 477.36,764 C 477.18,765.2 477.24,764.78 477.3,763.94 C 476.28,770.84 474.48,782.06 474.48,782.06 C 463.86,777.74 463.86,777.74 463.86,777.74 C 464.1,776.96 464.1,776.96 464.1,776.96 C 464.1,776.96 466.74,777.98 467.64,777.02 C 467.76,776.84 467.88,776.84 468.06,776.36 C 468.24,775.58 468.6,773.9 469.32,770.3 C 469.5,769.22 468.9,768.68 468.9,768.68 C 464.22,763.94 464.22,763.94 464.22,763.94 C 463.14,770.84 461.34,782 461.34,782 C 450.78,777.68 450.78,777.68 450.78,777.68 C 450.96,776.84 450.96,776.84 450.96,776.84 C 450.96,776.84 453.66,777.92 454.5,776.9 C 454.98,776.48 455.22,776.66 458.7,755.78 C 458.7,755.78 459.24,752.96 456.3,750.44 C 457.14,749.42 457.14,749.42 457.14,749.42 C 457.14,749.42 465.54,754.94 464.7,760.88 C 464.64,761 464.64,761.18 464.58,761.36 C 469.98,766.76 469.98,766.76 469.98,766.76 C 470.46,764 471.12,760.46 471.84,755.84 C 471.84,755.84 472.32,753.02 469.38,750.5 C 470.22,749.54 470.22,749.54 470.22,749.54 C 470.22,749.54 478.62,755.06 477.78,761"
             id="path12372"
             style="fill:#ffffff;fill-opacity:1;fill-rule:nonzero;stroke:none" /></g></g><path
         d="M 479.29094,1004.2374 C 479.29094,1003.2433 479.04243,1002.2493 478.79393,1001.2553 C 478.0484,998.27319 477.30288,995.53962 477.30288,995.53962 C 478.29691,995.53962 478.29691,995.53962 478.29691,995.53962 C 489.47972,995.53962 489.47972,995.53962 489.47972,995.53962 C 489.47972,995.53962 490.47375,998.5217 491.21927,1002.0008 C 492.2133,1005.7284 493.20733,1009.7045 493.20733,1009.7045 C 494.94688,1016.1657 490.72226,1027.1 480.53347,1025.1119 C 476.80587,1024.6149 473.57528,1022.6269 470.09618,1020.8873 C 465.37455,1018.1537 460.90143,1014.4261 456.67681,1010.6985 C 456.92532,1010.6985 449.2216,985.10232 449.2216,985.10232 C 432.32313,985.10232 432.32313,985.10232 432.32313,985.10232 C 435.80223,999.01871 438.2873,1000.5098 432.07462,1007.965 C 422.38285,1003.4918 422.38285,1003.4918 422.38285,1003.4918 C 423.62539,1000.5098 423.37688,998.5217 422.87987,996.03663 C 421.63733,992.55753 419.64928,985.10232 419.64928,985.10232 C 412.93959,985.10232 412.93959,985.10232 412.93959,985.10232 C 410.95153,978.64114 410.95153,978.64114 410.95153,978.64114 C 417.66122,978.64114 417.66122,978.64114 417.66122,978.64114 C 417.66122,978.64114 407.47244,935.89795 407.22393,935.89795 C 407.47244,933.9099 411.94556,927.69722 417.41271,927.44872 C 417.16421,927.44872 433.06865,937.14049 433.06865,937.38899 C 430.83209,940.61958 430.83209,940.61958 430.83209,940.61958 C 421.88584,934.65542 420.6433,938.63153 420.89181,940.86809 C 424.1224,953.29344 430.33507,978.64114 430.33507,978.64114 C 445.24549,978.64114 445.24549,978.64114 445.24549,978.64114 C 445.24549,978.64114 447.73056,979.13816 447.23354,976.9016 C 435.55372,928.93976 435.55372,928.93976 435.55372,928.93976 C 448.47608,928.93976 448.47608,928.93976 448.47608,928.93976 C 460.65292,978.64114 460.65292,978.64114 460.65292,978.64114 L 469.10215,978.64114 C 471.58722,978.39264 473.32677,977.64712 472.58125,974.66503 C 472.58125,974.66503 462.88948,936.14646 462.88948,935.89795 C 463.13799,933.9099 467.61111,927.69722 473.07827,927.44872 L 488.7342,937.38899 C 486.74615,940.61958 486.74615,940.61958 486.74615,940.61958 C 482.52153,937.88601 480.03646,937.14049 478.54542,937.6375 C 478.54542,937.6375 478.54542,937.6375 478.29691,937.6375 C 478.29691,937.6375 478.29691,937.6375 478.0484,937.88601 C 476.80587,938.38302 476.30886,939.87406 476.55736,940.86809 C 479.78795,953.29344 487.49167,985.10232 487.49167,985.10232 C 462.14396,985.10232 462.14396,985.10232 462.14396,985.10232 C 468.35663,1009.2075 468.35663,1009.2075 468.35663,1009.2075 C 469.84768,1012.9351 474.3208,1016.1657 477.7999,1015.4202 C 481.5275,1014.9232 480.78198,1009.953 479.53945,1004.9829 C 479.53945,1004.7344 479.53945,1004.2374 479.29094,1004.2374"
         id="path12374"
         style="fill:#ffffff;fill-opacity:1;fill-rule:nonzero;stroke:none" /><path
         d="M 362.74119,939.62556 L 362.74119,939.62556"
         id="path12376"
         style="fill:#ffffff;fill-opacity:1;fill-rule:nonzero;stroke:none" /><path
         d="M 409.9575,973.17399 L 409.9575,973.17399"
         id="path12378"
         style="fill:#ffffff;fill-opacity:1;fill-rule:nonzero;stroke:none" /><path
         d="M 409.9575,973.17399 C 409.709,973.91951 409.46049,974.41653 408.96348,974.91354 C 406.2299,981.12621 402.5023,983.61128 398.77469,984.85382 C 398.77469,985.10232 398.52619,985.10232 398.27768,985.10232 C 397.28365,985.10232 396.53813,985.35083 395.2956,985.35083 C 388.08889,985.10232 376.90608,980.38069 373.924,973.17399 C 372.68147,969.44639 370.4449,962.48819 370.94192,958.76059 C 371.19042,958.26358 371.19042,957.76656 371.43893,957.51806 C 371.68744,956.27552 372.68147,955.53 373.67549,954.78448 C 376.40907,952.54792 380.63369,951.8024 384.8583,950.31135 C 385.10681,950.31135 385.60383,950.06285 385.85233,950.06285 C 387.59188,949.31733 388.83442,948.3233 389.08292,946.83226 C 389.33143,944.59569 388.08889,940.12257 386.34935,937.38899 C 382.62174,930.92781 377.4031,934.90392 372.43296,945.34122 C 372.18445,945.34122 363.2382,939.87406 362.74119,939.62556 C 363.2382,939.12854 363.48671,938.63153 363.73522,937.88601 C 366.7173,931.92184 370.4449,928.93976 374.17251,928.19424 C 374.42101,927.94573 374.42101,927.94573 374.66952,927.94573 C 375.41504,927.69722 376.65758,927.44872 377.6516,927.44872 C 384.8583,927.44872 396.04112,932.41885 398.77469,939.87406 C 400.26573,943.60167 402.25379,950.31135 401.75678,954.03896 C 401.75678,954.53597 401.50827,955.03299 401.50827,955.53 C 401.01126,956.52403 400.26573,957.51806 399.27171,958.26358 C 396.53813,960.25163 392.06501,961.24566 388.3374,962.48819 L 388.08889,962.48819 C 387.59188,962.7367 387.34337,962.7367 386.84636,962.98521 C 385.60383,963.73073 384.11278,964.47625 383.86428,965.96729 C 383.36726,968.20385 384.8583,972.67698 386.34935,975.41055 C 390.57396,982.12024 395.5441,978.14413 400.26573,967.45833 C 400.51424,967.45833 400.51424,967.45833 400.51424,967.45833 C 401.01126,967.70684 409.709,973.17399 409.9575,973.17399"
         id="path12380"
         style="fill:#ffffff;fill-opacity:1;fill-rule:nonzero;stroke:none" /><g
         transform="matrix(4.1417822,0,0,4.1417822,-1655.1351,-2176.4857)"
         id="g12382"><g
           clip-path="url(#clipPath12386)"
           id="g12384"><path
             d="M 553.08,772.82 C 550.86,772.88 548.46,772.7 546.84,770.96 C 545.94,769.22 544.08,762.62 544.08,762.62 C 543.54,763.46 539.1,764.42 536.58,761 C 536.52,761 536.52,761 536.52,761 C 536.22,760.34 534.3,752.84 534.3,752.84 C 533.7,752.42 531.96,751.76 531.72,751.82 C 531.36,752 531.18,752.3 531.24,752.66 C 532.86,758.36 534.06,764.24 535.86,769.82 C 536.58,771.26 538.14,771.86 539.58,772.04 C 539.58,772.82 539.58,772.82 539.58,772.82 C 537.36,772.88 534.96,772.7 533.34,770.96 C 532.14,768.98 528.12,752.24 528.12,752.24 C 527.88,750.86 529.32,749.36 530.34,749.42 C 531.84,750.08 533.1,750.98 534.48,751.76 C 534.9,751.16 535.62,750.32 536.22,749.96 C 537.96,748.7 541.38,750.92 541.38,750.86 C 541.92,750.14 542.58,749.3 543.96,749.54 C 544.92,749.9 548.82,752.42 548.82,752.42 C 548.28,753.26 548.28,753.26 548.28,753.26 C 548.28,753.26 546.24,751.94 545.1,751.82 C 545.1,751.82 544.38,751.88 544.56,752.66 L 549.36,769.82 C 550.08,771.26 551.64,771.86 553.08,772.04 L 553.08,772.82 z M 543.48,759.98 C 541.74,753.86 541.74,753.86 541.74,753.86 C 541.68,753.5 541.44,753.32 541.32,753.2 C 539.28,751.52 536.88,750.86 537.72,754.4 C 537.72,754.4 539.22,760.1 539.46,760.52 C 540.78,762.2 543.66,762.44 543.48,759.98"
             id="path12390"
             style="fill:#ffffff;fill-opacity:1;fill-rule:nonzero;stroke:none" /></g></g><g
         transform="matrix(4.1417822,0,0,4.1417822,-1655.1351,-2176.4857)"
         id="g12392"><g
           clip-path="url(#clipPath12396)"
           id="g12394"><path
             d="M 528.42,762.92 C 527.4,763.88 525.24,763.34 523.8,762.98 C 522.3,762.5 520.68,762.02 519.96,760.28 C 519.42,758.36 518.52,754.7 517.98,752.3 C 517.98,751.7 520.02,749.6 521.58,749.42 C 522.06,749.24 526.86,752.42 526.86,752.42 C 526.32,753.26 526.32,753.26 526.32,753.26 C 526.32,753.26 524.4,752 523.2,751.88 C 523.14,751.88 523.08,751.88 523.08,751.88 C 522.42,751.94 521.52,752.48 521.28,753.08 C 521.22,753.26 521.88,755.72 521.88,755.72 C 521.88,755.72 526.5,755.48 527.88,757.28 C 528.84,758.9 529.56,761.6 528.42,762.92 z M 525.84,759.02 C 525.18,757.1 522.78,757.28 522.42,757.4 C 522.36,757.4 522.36,757.52 522.36,757.52 C 522.96,759.86 522.96,759.86 522.96,759.86 C 523.32,761.18 524.94,761.9 525.6,761.72 C 526.74,761.36 525.84,759.02 525.84,759.02"
             id="path12400"
             style="fill:#ffffff;fill-opacity:1;fill-rule:nonzero;stroke:none" /></g></g><g
         transform="matrix(4.1417822,0,0,4.1417822,-1655.1351,-2176.4857)"
         id="g12402"><g
           clip-path="url(#clipPath12406)"
           id="g12404"><path
             d="M 488.1,762.92 C 487.02,763.88 484.86,763.34 483.48,762.98 C 481.98,762.5 480.36,762.02 479.64,760.28 C 479.04,758.36 478.14,754.7 477.66,752.3 C 477.6,751.7 479.7,749.6 481.2,749.42 C 481.74,749.24 486.48,752.42 486.48,752.42 C 485.94,753.26 485.94,753.26 485.94,753.26 C 485.94,753.26 484.02,752 482.82,751.88 C 482.76,751.88 482.76,751.88 482.76,751.88 C 482.04,751.94 481.2,752.48 480.96,753.08 C 480.84,753.26 481.56,755.72 481.56,755.72 C 481.56,755.72 486.12,755.48 487.56,757.28 C 488.52,758.9 489.18,761.6 488.1,762.92 z M 485.52,759.02 C 484.86,757.1 482.46,757.28 482.1,757.4 C 482.04,757.4 482.04,757.52 482.04,757.52 C 482.64,759.86 482.64,759.86 482.64,759.86 C 483,761.18 484.62,761.9 485.28,761.72 C 486.42,761.36 485.52,759.02 485.52,759.02"
             id="path12410"
             style="fill:#ffffff;fill-opacity:1;fill-rule:nonzero;stroke:none" /></g></g></g></g></svg>